<!-- Generated by IcoMoon.io -->
<svg version="1.1" xmlns="http://www.w3.org/2000/svg" width="1024" height="1024" viewBox="0 0 1024 1024">
<title></title>
<g id="icomoon-ignore">
</g>
<path d="M731.136 666.624h-437.248c-126.976 0-229.376-102.4-229.376-228.352 0-88.064 51.2-167.936 129.024-205.824 11.264-130.048 121.856-232.448 253.952-232.448 126.976 0 231.424 90.112 251.904 210.944 10.24-1.024 20.48-2.048 31.744-2.048 125.952 0 228.352 102.4 228.352 229.376 0 125.952-102.4 228.352-228.352 228.352zM447.488 61.44c-105.472 0-192.512 86.016-193.536 191.488 0 13.312-8.192 24.576-19.456 28.672-64.512 24.576-108.544 87.040-108.544 156.672 0 92.16 75.776 166.912 167.936 166.912h437.248c92.16 0 166.912-74.752 166.912-166.912s-74.752-166.912-166.912-166.912c-17.408 0-33.792 2.048-50.176 7.168-9.216 3.072-19.456 1.024-27.648-4.096-7.168-6.144-12.288-15.36-12.288-24.576-3.072-105.472-88.064-188.416-193.536-188.416zM667.648 331.776c-2.048 0-4.096 0-6.144 0-17.408-4.096-27.648-20.48-24.576-36.864 3.072-13.312 4.096-26.624 4.096-39.936 0-106.496-87.040-193.536-193.536-193.536s-193.536 87.040-193.536 193.536c0 17.408-13.312 31.744-30.72 31.744s-30.72-14.336-30.72-31.744c0-140.288 114.688-254.976 254.976-254.976s256 114.688 256 254.976c0 17.408-2.048 35.84-6.144 52.224-3.072 15.36-15.36 24.576-29.696 24.576zM433.152 328.704c-7.168 0-15.36-3.072-21.504-9.216-31.744-30.72-73.728-48.128-117.76-48.128-23.552 0-45.056 4.096-65.536 12.288-15.36 7.168-33.792 0-40.96-16.384-6.144-15.36 1.024-33.792 16.384-39.936 28.672-12.288 58.368-18.432 90.112-18.432 60.416 0 117.76 23.552 161.792 67.584 12.288 11.264 12.288 31.744 0 43.008-6.144 6.144-14.336 9.216-22.528 9.216zM342.016 782.336c-11.264 34.816-31.744 59.392-45.056 54.272-14.336-4.096-16.384-35.84-5.12-70.656s31.744-58.368 45.056-54.272c14.336 5.12 16.384 36.864 5.12 70.656zM543.744 791.552c-11.264 34.816-31.744 59.392-45.056 54.272-14.336-4.096-16.384-35.84-5.12-70.656s31.744-58.368 45.056-54.272c14.336 4.096 16.384 35.84 5.12 70.656zM745.472 800.768c-11.264 34.816-31.744 59.392-45.056 54.272-14.336-4.096-16.384-35.84-5.12-70.656s31.744-59.392 45.056-54.272c14.336 4.096 16.384 35.84 5.12 70.656zM419.84 960.512c-11.264 33.792-31.744 58.368-45.056 54.272-14.336-5.12-16.384-36.864-5.12-71.68s31.744-58.368 45.056-54.272c14.336 5.12 16.384 36.864 5.12 71.68zM621.568 968.704c-11.264 34.816-31.744 59.392-45.056 54.272-14.336-4.096-16.384-35.84-5.12-70.656s31.744-58.368 45.056-54.272c14.336 5.12 16.384 36.864 5.12 70.656z"></path>
</svg>
