<!-- Generated by IcoMoon.io -->
<svg version="1.1" xmlns="http://www.w3.org/2000/svg" width="1024" height="1024" viewBox="0 0 1024 1024">
<title></title>
<g id="icomoon-ignore">
</g>
<path d="M795.648 507.904c0 156.672-126.976 283.648-283.648 283.648s-283.648-126.976-283.648-283.648c0-155.648 126.976-282.624 283.648-282.624s283.648 126.976 283.648 282.624zM538.624 76.8c0 43.008-12.288 77.824-26.624 77.824s-26.624-34.816-26.624-77.824c0-41.984 12.288-76.8 26.624-76.8s26.624 34.816 26.624 76.8zM538.624 947.2c0 41.984-12.288 76.8-26.624 76.8s-26.624-34.816-26.624-76.8c0-43.008 12.288-77.824 26.624-77.824s26.624 34.816 26.624 77.824zM317.44 121.856c21.504 36.864 28.672 72.704 15.36 80.896-12.288 7.168-39.936-17.408-61.44-54.272s-27.648-72.704-15.36-79.872c12.288-7.168 39.936 16.384 61.44 53.248zM752.64 875.52c21.504 36.864 28.672 72.704 15.36 79.872-12.288 7.168-39.936-16.384-61.44-53.248s-28.672-72.704-15.36-80.896c12.288-7.168 39.936 17.408 61.44 54.272zM148.48 271.36c36.864 21.504 61.44 49.152 54.272 61.44-8.192 13.312-44.032 6.144-80.896-15.36s-60.416-49.152-53.248-61.44 43.008-6.144 79.872 15.36zM902.144 706.56c36.864 21.504 60.416 48.128 53.248 61.44-7.168 12.288-43.008 6.144-79.872-15.36s-61.44-49.152-54.272-62.464c8.192-12.288 44.032-5.12 80.896 16.384zM77.824 485.376c41.984 0 76.8 12.288 76.8 26.624s-34.816 26.624-76.8 26.624-77.824-12.288-77.824-26.624c0-14.336 34.816-26.624 77.824-26.624zM947.2 485.376c41.984 0 76.8 12.288 76.8 26.624s-34.816 26.624-76.8 26.624c-43.008 0-77.824-12.288-77.824-26.624s34.816-26.624 77.824-26.624zM121.856 706.56c36.864-21.504 72.704-28.672 80.896-15.36 7.168 12.288-17.408 39.936-54.272 61.44s-72.704 27.648-79.872 15.36c-7.168-13.312 16.384-39.936 53.248-61.44zM875.52 271.36c36.864-21.504 72.704-28.672 79.872-15.36s-16.384 39.936-53.248 61.44c-36.864 21.504-72.704 28.672-80.896 15.36-7.168-12.288 17.408-39.936 54.272-61.44zM271.36 875.52c21.504-36.864 49.152-61.44 61.44-54.272s6.144 44.032-15.36 80.896c-21.504 36.864-48.128 60.416-61.44 53.248-12.288-7.168-6.144-43.008 15.36-79.872zM706.56 121.856c21.504-36.864 49.152-60.416 61.44-53.248 13.312 7.168 6.144 43.008-15.36 79.872s-49.152 61.44-61.44 54.272c-13.312-8.192-6.144-44.032 15.36-80.896z"></path>
</svg>
