<!-- Generated by IcoMoon.io -->
<svg version="1.1" xmlns="http://www.w3.org/2000/svg" width="1365" height="1024" viewBox="0 0 1365 1024">
<title></title>
<g id="icomoon-ignore">
</g>
<path d="M1018.88 1019.904h-671.744c-191.488 0-347.136-155.648-347.136-347.136 0-134.144 78.848-256 197.632-313.344 16.384-198.656 184.32-355.328 386.048-355.328 193.536 0 353.28 139.264 381.952 325.632 17.408-3.072 34.816-4.096 53.248-4.096 190.464 0 346.112 155.648 346.112 347.136s-155.648 347.136-346.112 347.136v0zM583.68 90.112c-164.864 0-300.032 134.144-302.080 297.984 0 18.432-10.24 33.792-26.624 39.936-101.376 37.888-168.96 136.192-168.96 244.736 0 144.384 116.736 261.12 261.12 261.12h671.744c144.384 0 261.12-116.736 261.12-261.12s-117.76-262.144-261.12-262.144c-26.624 0-53.248 4.096-77.824 12.288-13.312 4.096-26.624 2.048-37.888-6.144-10.24-8.192-17.408-20.48-17.408-33.792-5.12-163.84-137.216-292.864-302.080-292.864v0zM562.176 499.712c-11.264 0-21.504-4.096-30.72-12.288-49.152-49.152-114.688-76.8-184.32-76.8-35.84 0-69.632 7.168-102.4 20.48-21.504 9.216-46.080-1.024-55.296-22.528s1.024-46.080 22.528-55.296c43.008-18.432 88.064-27.648 135.168-27.648 92.16 0 179.2 35.84 244.736 101.376 17.408 16.384 17.408 44.032 0 60.416-8.192 8.192-18.432 12.288-29.696 12.288v0z"></path>
</svg>
